<svg width="40" height="40" viewBox="0 0 52 53" fill="none" xmlns="http://www.w3.org/2000/svg">
<path d="M39 43.0625C39 46.7228 35.36 49.6875 30.875 49.6875C26.39 49.6875 22.75 46.7228 22.75 43.0625C22.75 39.4022 26.39 36.4375 30.875 36.4375C35.36 36.4375 39 39.4022 39 43.0625Z" fill="#FFFF00"/>
<path fill-rule="evenodd" clip-rule="evenodd" d="M39 9.9375V43.0625H35.75V9.9375H39Z" fill="#FFFF00"/>
<path d="M35.75 9.34121C35.7505 8.57572 36.011 7.83401 36.4874 7.2422C36.9637 6.65039 37.6265 6.245 38.363 6.09496L48.113 4.10746C48.5843 4.01144 49.0707 4.02317 49.537 4.1418C50.0034 4.26043 50.4381 4.48301 50.8099 4.79351C51.1816 5.104 51.4812 5.49467 51.687 5.93739C51.8928 6.3801 51.9997 6.86382 52 7.35371V13.25L35.75 16.5625V9.34121Z" fill=" #FFFF00"/>
<path fill-rule="evenodd" clip-rule="evenodd" d="M0 38.0938C0 37.6545 0.171205 37.2332 0.475952 36.9226C0.780698 36.612 1.19402 36.4375 1.625 36.4375H13C13.431 36.4375 13.8443 36.612 14.149 36.9226C14.4538 37.2332 14.625 37.6545 14.625 38.0938C14.625 38.533 14.4538 38.9543 14.149 39.2649C13.8443 39.5755 13.431 39.75 13 39.75H1.625C1.19402 39.75 0.780698 39.5755 0.475952 39.2649C0.171205 38.9543 0 38.533 0 38.0938ZM0 24.8438C0 24.4045 0.171205 23.9832 0.475952 23.6726C0.780698 23.362 1.19402 23.1875 1.625 23.1875H26C26.431 23.1875 26.8443 23.362 27.149 23.6726C27.4538 23.9832 27.625 24.4045 27.625 24.8438C27.625 25.283 27.4538 25.7043 27.149 26.0149C26.8443 26.3255 26.431 26.5 26 26.5H1.625C1.19402 26.5 0.780698 26.3255 0.475952 26.0149C0.171205 25.7043 0 25.283 0 24.8438ZM0 11.5938C0 11.1545 0.171205 10.7332 0.475952 10.4226C0.780698 10.112 1.19402 9.9375 1.625 9.9375H26C26.431 9.9375 26.8443 10.112 27.149 10.4226C27.4538 10.7332 27.625 11.1545 27.625 11.5938C27.625 12.033 27.4538 12.4543 27.149 12.7649C26.8443 13.0755 26.431 13.25 26 13.25H1.625C1.19402 13.25 0.780698 13.0755 0.475952 12.7649C0.171205 12.4543 0 12.033 0 11.5938Z" fill=" #FFFF00"/>
</svg>
