<svg width="80" height="80" viewBox="0 0 64 57" fill="none" xmlns="http://www.w3.org/2000/svg">
<path d="M37.3 0.402562C35.5489 0.137608 33.7761 0.00295506 32 0C14.32 0 0 12.7537 0 28.5C0 34.5456 2.134 40.1316 5.72 44.7646C7.92 41.8861 12.994 39.9 18.876 39.9C22.916 39.9 26.57 40.8494 29.188 42.3759L37.3 0.402562ZM54.304 8.08866C59.83 18.9721 54.982 24.7861 54.982 24.7861C51.232 14.7398 40.372 13.2721 40.372 13.2721C40.372 13.2721 33.228 47.5576 33.228 47.9887C33.228 51.7026 28.8 54.8411 22.788 55.7905C25.7761 56.5913 28.8796 56.9988 32 57C49.68 57 64 44.2463 64 28.5C64 20.4968 60.282 13.2703 54.304 8.08866Z" fill=" #FFFF00"/>
</svg>
